<?xml version="1.0" encoding="utf-8"?>
<!-- Generator: Adobe Illustrator 26.0.2, SVG Export Plug-In . SVG Version: 6.00 Build 0)  -->
<svg version="1.1" id="Layer_1" xmlns="http://www.w3.org/2000/svg" xmlns:xlink="http://www.w3.org/1999/xlink" x="0px" y="0px"
	 viewBox="0 0 600 600" style="enable-background:new 0 0 600 600;" xml:space="preserve">
<style type="text/css">
	.st0{fill:#FFFFFF;}
</style>
<path class="st0" d="M547.3,402.3c26-26.3,42.1-62.5,42.1-102.3s-16.1-76-42.1-102.3c-0.2-38.6-15.3-74.9-42.7-102.3
	C477.3,68,441,52.9,402.3,52.7C376,26.7,339.8,10.6,300,10.6c-39.9,0-76.1,16.1-102.4,42.2c-37,0.2-74,14.4-102.2,42.6
	C68,122.7,52.9,159,52.7,197.7C26.7,224,10.6,260.2,10.6,300c0,39.8,16.1,76,42.1,102.3C52.9,441,68,477.3,95.4,504.6
	c28.2,28.2,65.2,42.4,102.2,42.6c26.3,26.1,62.5,42.2,102.4,42.2c39.8,0,76-16.1,102.3-42.1c38.6-0.2,75-15.3,102.3-42.7
	C532,477.3,547.1,441,547.3,402.3z M445.7,441.7c-0.5-37.8-15.5-72.2-39.6-97.8c35.2-1.1,70.1-14.8,97.1-41.1
	c25.7,26.4,39.9,61,40.1,97.9C518.1,425.6,483.7,441.2,445.7,441.7z M400.7,543.3c-36.9-0.2-71.5-14.4-97.9-40.1
	c25.6-26.3,40.1-60.5,41.2-97.1c25.6,24.1,59.9,39,97.7,39.5C441.2,483.7,425.6,518.1,400.7,543.3z M199.2,543.2
	c-24.9-25.2-40.4-59.6-40.9-97.6c37.8-0.5,72.2-15.5,97.8-39.6c1.1,35.2,14.7,70,41.1,97.1C270,529.7,234.6,543,199.2,543.2z
	 M56.7,400.7c0.2-36.9,14.4-71.5,40.1-97.9c26.3,25.6,60.5,40.1,97.1,41.2c-24.1,25.6-39,59.9-39.5,97.7
	C116.3,441.2,81.9,425.6,56.7,400.7z M154.3,158.3c0.5,37.7,15.4,72.1,39.5,97.7c-36.6,1.1-70.8,15.6-97.1,41.2
	c-25.7-26.4-39.9-61-40.1-97.9C81.9,174.4,116.3,158.8,154.3,158.3z M199.2,56.8c35.4,0.2,70.7,13.6,98,40.1
	c-26.3,27.1-40,61.9-41.1,97.1c-25.6-24.1-60-39.1-97.8-39.6C158.8,116.4,174.4,81.9,199.2,56.8z M400.7,56.7
	c24.9,25.2,40.5,59.6,41,97.7c-37.7,0.5-72.1,15.4-97.7,39.5c-1.1-36.6-15.6-70.8-41.2-97.1C329.2,71.1,363.8,56.9,400.7,56.7z
	 M543.3,199.3c-0.2,36.9-14.4,71.5-40.1,97.9c-26.3-25.6-60.5-40.1-97.1-41.2c24.1-25.6,39-59.9,39.5-97.7
	C483.7,158.8,518.1,174.4,543.3,199.3z M344.1,400.7c-0.2-30.5-9.7-59.4-27.1-83.7c24.9,17.8,54.2,26.8,83.6,27
	c25,25.2,40.6,59.7,41.1,97.7C403.7,441.2,369.2,425.6,344.1,400.7z M158.3,441.7c0.5-38,16.1-72.4,41-97.6
	c30.5-0.2,59.4-9.7,83.7-27.1c-17.8,24.9-26.8,54.2-27,83.6C230.8,425.6,196.4,441.2,158.3,441.7z M256,199.4
	c0.2,29.4,9.2,58.7,27,83.6c-24.3-17.4-53.3-26.9-83.7-27.1c-24.9-25.2-40.5-59.6-41-97.6C196.4,158.8,230.8,174.4,256,199.4z
	 M441.7,158.3c-0.5,38-16.1,72.5-41,97.6c-30.4,0.2-59.3,9.6-83.6,27c17.4-24.3,26.8-53.2,27-83.6
	C369.2,174.4,403.7,158.8,441.7,158.3z M396.5,260c-24.2,22.5-56.2,36.7-91.4,37.9C330.1,274.5,362.2,261.2,396.5,260z M302.1,295
	c1.2-35.3,15.4-67.3,37.9-91.4C338.8,237.8,325.5,269.9,302.1,295z M260.1,203.6c22.4,24.2,36.6,56.1,37.8,91.3
	C273.9,269.2,261.3,236.6,260.1,203.6z M295,297.9c-35.3-1.2-67.3-15.4-91.4-37.9C237.8,261.2,269.9,274.5,295,297.9z M197.7,259.9
	c20.9,20.7,48.1,35.1,78.3,40.1c-30.3,5-57.4,19.4-78.3,40.1c-36.9-0.2-71.6-14.4-98.1-40.1C126.1,274.3,160.8,260.1,197.7,259.9z
	 M295,302.1c-25.1,23.4-57.2,36.7-91.4,37.9C227.7,317.5,259.7,303.3,295,302.1z M297.9,305.1c-1.2,35.2-15.4,67.2-37.8,91.3
	C261.3,363.4,273.9,330.8,297.9,305.1z M340,396.5c-22.5-24.2-36.7-56.2-37.9-91.4C325.5,330.1,338.8,362.2,340,396.5z M305.1,302.1
	c35.2,1.2,67.2,15.4,91.3,37.8C363.4,338.7,330.8,326.1,305.1,302.1z M402.2,340c-20.9-20.6-48-35-78.2-40
	c30.3-5,57.4-19.4,78.3-40.1c36.9,0.2,71.6,14.4,98,40.1C473.1,326.5,437.7,339.9,402.2,340z M340.1,197.7
	C319.4,218.6,305,245.7,300,276c-5-30.2-19.4-57.3-40-78.2c0.2-35.5,13.5-70.8,40-98.1C325.7,126.1,339.9,160.8,340.1,197.7z
	 M260,402.2c20.6-20.9,35-48,40-78.2c5,30.3,19.4,57.4,40.1,78.3c-0.2,36.9-14.4,71.6-40.1,98C273.5,473.1,260.1,437.7,260,402.2z
	 M547.2,396.7c-1.2-36.4-15.7-70.5-41.2-96.7c25.5-26.2,40-60.3,41.2-96.7c23.7,25.3,38.2,59.3,38.2,96.7S570.9,371.3,547.2,396.7z
	 M543.2,193.7c-25.6-24-59.9-38.9-97.6-39.4c-0.5-37.7-15.4-72-39.4-97.6c36.1,1.2,69.9,15.8,95.5,41.4
	C527.5,123.8,542.1,157.6,543.2,193.7z M396.7,52.8C360.3,54,326.2,68.5,300,94c-27-26.3-61.7-40-96.8-41.1
	c25.3-23.7,59.4-38.3,96.8-38.3C337.3,14.6,371.3,29.1,396.7,52.8z M98.2,98.2C124.6,71.8,159,58,193.6,56.9
	c-24,25.6-38.8,59.8-39.3,97.5c-37.7,0.5-72,15.4-97.6,39.4C57.9,157.6,72.5,123.8,98.2,98.2z M52.8,203.3
	C54,239.7,68.5,273.8,94,300c-25.5,26.2-40,60.3-41.2,96.7c-23.7-25.3-38.2-59.3-38.2-96.7C14.6,262.7,29.1,228.7,52.8,203.3z
	 M56.8,406.3c25.6,24,59.9,38.9,97.6,39.4c0.5,37.6,15.3,71.9,39.3,97.5c-34.7-1.2-69-14.9-95.5-41.3
	C72.5,476.2,57.9,442.4,56.8,406.3z M203.2,547.1C238.3,546,273,532.2,300,506c26.2,25.5,60.3,40,96.7,41.2
	c-25.3,23.7-59.3,38.2-96.7,38.2C262.6,585.4,228.6,570.9,203.2,547.1z M406.3,543.2c24-25.6,38.9-59.9,39.4-97.6
	c37.7-0.5,72-15.4,97.6-39.4c-1.2,36.1-15.8,69.9-41.4,95.5C476.2,527.5,442.4,542.1,406.3,543.2z"/>
</svg>
